<svg width="70" height="17" viewBox="0 0 70 17" fill="none" xmlns="http://www.w3.org/2000/svg">
<g clip-path="url(#clip0_3927_479)">
<path d="M1.35632 5.16937V11.8306C1.35632 12.2389 1.60196 12.6472 1.95524 12.8501L7.93064 16.1807C8.31704 16.3835 8.7752 16.3835 9.1616 16.1807L15.137 12.8501C15.5234 12.6472 15.7359 12.2389 15.7359 11.8306V5.16937C15.7359 4.76105 15.4903 4.35273 15.137 4.14991L9.15884 0.819295C8.77244 0.616469 8.31428 0.616469 7.92788 0.819295L1.95248 4.14991C1.56608 4.35273 1.35632 4.76105 1.35632 5.16937Z" fill="#213147"/>
<path d="M9.86262 9.79169L9.01806 12.0361C8.98218 12.1028 8.98218 12.1722 9.01806 12.2389L10.4947 16.114L12.181 15.1612L10.1414 9.79169C10.1083 9.65558 9.93162 9.65558 9.86262 9.79169Z" fill="#12AAFF"/>
<path d="M11.549 5.98602C11.5131 5.84991 11.3392 5.84991 11.2675 5.98602L10.4229 8.23045C10.387 8.29717 10.387 8.36656 10.4229 8.43327L12.8131 14.7903L14.4994 13.8375L11.549 5.98602Z" fill="#12AAFF"/>
<path d="M8.52679 1.05682C8.56267 1.05682 8.59579 1.05682 8.63167 1.09151L15.0984 4.69434C15.1674 4.72903 15.2032 4.79575 15.2032 4.89716V12.1028C15.2032 12.1695 15.1674 12.2736 15.0984 12.3056L8.63167 15.9085C8.59579 15.9432 8.56267 15.9432 8.52679 15.9432C8.49091 15.9432 8.45779 15.9432 8.42191 15.9085L1.95523 12.3056C1.88623 12.2709 1.85035 12.2042 1.85035 12.1028V4.89716C1.85035 4.83044 1.88623 4.72636 1.95523 4.69434L8.42191 1.09151C8.45503 1.05682 8.49091 1.05682 8.52679 1.05682ZM8.52679 0.00265503C8.28115 0.00265503 8.06863 0.069374 7.85887 0.173456L1.39219 3.77628C0.969914 4.0138 0.724274 4.42212 0.724274 4.89716V12.1028C0.724274 12.5458 0.969914 12.9862 1.39219 13.2237L7.85887 16.8265C8.06863 16.9279 8.28115 16.9973 8.52679 16.9973C8.77243 16.9973 8.98495 16.9306 9.19471 16.8265L15.6614 13.2237C16.0837 12.9862 16.3293 12.5779 16.3293 12.1028V4.89716C16.3293 4.45415 16.0837 4.0138 15.6614 3.77628L9.22783 0.173456C9.01807 0.0720428 8.80555 0.00265503 8.55991 0.00265503H8.52679Z" fill="#9DCCED"/>
<path d="M4.27362 14.7876L4.86978 13.2237L6.06486 14.1764L4.94154 15.1959L4.27362 14.7876Z" fill="#213147"/>
<path d="M7.99963 4.38742H6.34639C6.24151 4.38742 6.10075 4.45414 6.06487 4.55822L2.55139 13.8695L4.23775 14.8223L8.10451 4.59025C8.14039 4.48883 8.06863 4.38742 7.96375 4.38742H7.99963Z" fill="white"/>
<path d="M10.8452 4.38743H9.19195C9.08707 4.38743 8.94631 4.45415 8.91043 4.55823L4.90567 15.1612L6.59203 16.114L10.9501 4.55823C10.9859 4.45682 10.9142 4.35541 10.8093 4.35541L10.8452 4.38743Z" fill="white"/>
<path d="M23.29 6.32495C23.4667 6.32495 23.6074 6.35965 23.7123 6.42636C23.8172 6.49308 23.9221 6.62919 24.0297 6.79999L26.1742 10.5389C26.2101 10.5736 26.2101 10.6056 26.1742 10.6403C26.1742 10.675 26.1384 10.675 26.0694 10.675H25.2607C25.1917 10.675 25.1558 10.6403 25.1199 10.6083L24.659 9.79167H21.6368L21.1786 10.6083C21.1428 10.675 21.1096 10.675 21.0379 10.675H20.1933C20.1243 10.675 20.0884 10.675 20.0884 10.6403C20.0884 10.6056 20.0884 10.5736 20.0884 10.5389L22.1971 6.79999C22.302 6.59716 22.4068 6.49308 22.5145 6.42636C22.6221 6.35965 22.7242 6.32495 22.865 6.32495H23.2514H23.29ZM22.0232 9.07911H24.2367L23.2183 7.243C23.1824 7.20831 23.1824 7.20831 23.1493 7.20831H23.1134C23.0775 7.20831 23.0444 7.20831 23.0444 7.243L22.0232 9.07911Z" fill="white"/>
<path d="M30.8469 6.32495C31.3382 6.32495 31.6915 6.42636 31.9013 6.66388C32.111 6.86671 32.2187 7.20831 32.2187 7.61663V7.95556C32.2187 8.32919 32.1497 8.6014 32.0089 8.80423C31.8681 9.00705 31.6225 9.14316 31.272 9.21255L32.3622 10.5389C32.3981 10.5736 32.3981 10.6056 32.3981 10.6403C32.3981 10.675 32.3622 10.7071 32.2932 10.7071H31.4486C31.3796 10.7071 31.3437 10.7071 31.3437 10.6724C31.3079 10.6724 31.3079 10.6377 31.2747 10.6056L30.2563 9.31396H28.1835V10.5709C28.1835 10.6724 28.1477 10.7071 28.0428 10.7071H27.339C27.2341 10.7071 27.1982 10.6724 27.1982 10.5709V6.52778C27.1982 6.39167 27.2672 6.32495 27.408 6.32495H30.8883H30.8469ZM28.1753 8.56671H30.6344C30.8442 8.56671 31.0208 8.53201 31.0926 8.4306C31.1975 8.32919 31.2333 8.19308 31.2333 8.02228V7.75007C31.2333 7.54724 31.1975 7.41114 31.0926 7.34175C30.9877 7.24034 30.8469 7.20564 30.6344 7.20564H28.2443C28.1753 7.20564 28.1753 7.24034 28.1753 7.27236V8.56671Z" fill="white"/>
<path d="M37.631 6.32495C38.0892 6.32495 38.4038 6.42636 38.5804 6.59716C38.7571 6.76797 38.862 7.04018 38.862 7.37911V7.68602C38.862 8.02495 38.7212 8.29716 38.4397 8.46796C38.7212 8.63877 38.8978 8.91098 38.8978 9.28461V9.65823C38.8978 9.82903 38.862 9.96514 38.8288 10.1012C38.7957 10.2374 38.724 10.3388 38.6522 10.4402C38.5473 10.5416 38.4424 10.611 38.3017 10.643C38.1609 10.6777 37.9843 10.7097 37.7745 10.7097H33.9436C33.8029 10.7097 33.7339 10.643 33.7339 10.5069V6.53045C33.7339 6.39434 33.8029 6.32762 33.9436 6.32762H37.6696H37.631V6.32495ZM34.7137 8.12636H37.3495C37.5592 8.12636 37.7 8.09167 37.7718 8.02495C37.8435 7.95823 37.8766 7.88884 37.8766 7.75274V7.54991C37.8766 7.4138 37.8408 7.31239 37.7718 7.2777C37.7028 7.21098 37.562 7.17629 37.4212 7.17629H34.7854C34.7164 7.17629 34.7164 7.21098 34.7164 7.243V8.12636H34.7137ZM34.7137 8.8069V9.72495C34.7137 9.79167 34.7496 9.79167 34.7827 9.79167H37.4185C37.5951 9.79167 37.7 9.75698 37.769 9.69026C37.838 9.62354 37.8739 9.51946 37.8739 9.41804V9.18052C37.8739 9.04442 37.838 8.943 37.769 8.87362C37.7 8.80423 37.5592 8.7722 37.3108 8.7722H34.6778L34.7137 8.8069Z" fill="white"/>
<path d="M41.2852 6.32495C41.3901 6.32495 41.426 6.35965 41.426 6.46106V10.5389C41.426 10.6403 41.3901 10.675 41.2852 10.675H40.5814C40.4766 10.675 40.4407 10.6403 40.4407 10.5389V6.46106C40.4407 6.35965 40.4766 6.32495 40.5814 6.32495H41.2852Z" fill="white"/>
<path d="M48.0693 6.32495C48.1742 6.32495 48.2101 6.35965 48.2101 6.46106V7.0722C48.2101 7.17362 48.1742 7.20831 48.0693 7.20831H46.0297V10.5389C46.0297 10.6403 45.9938 10.675 45.8889 10.675H45.1851C45.0802 10.675 45.0444 10.6403 45.0444 10.5389V7.20831H43.0047C42.8998 7.20831 42.864 7.17362 42.864 7.0722V6.46106C42.864 6.35965 42.8998 6.32495 43.0047 6.32495H48.0307H48.0693Z" fill="white"/>
<path d="M53.167 6.32495C53.6583 6.32495 54.0116 6.42636 54.2214 6.66388C54.4311 6.86671 54.5388 7.20831 54.5388 7.61663V7.95556C54.5388 8.32919 54.4698 8.6014 54.329 8.80423C54.1882 9.00705 53.9426 9.14316 53.5921 9.21255L54.6823 10.5389C54.7182 10.5736 54.7182 10.6056 54.7182 10.6403C54.7182 10.675 54.6823 10.7071 54.6133 10.7071H53.7687C53.6997 10.7071 53.6638 10.7071 53.6638 10.6724C53.628 10.6724 53.628 10.6377 53.5948 10.6056L52.5764 9.31396H50.5036V10.5709C50.5036 10.6724 50.4678 10.7071 50.3629 10.7071H49.6591C49.5542 10.7071 49.5183 10.6724 49.5183 10.5709V6.52778C49.5183 6.39167 49.5873 6.32495 49.7281 6.32495H53.2084H53.167ZM50.4954 8.56671H52.9545C53.1643 8.56671 53.3409 8.53201 53.4127 8.4306C53.5176 8.32919 53.5534 8.19308 53.5534 8.02228V7.75007C53.5534 7.54724 53.5176 7.41114 53.4127 7.34175C53.3078 7.24034 53.167 7.20564 52.9545 7.20564H50.5644C50.4954 7.20564 50.4954 7.24034 50.4954 7.27236V8.56671Z" fill="white"/>
<path d="M56.7882 6.32495C56.8931 6.32495 56.929 6.35965 56.929 6.46106V8.943C56.929 9.11381 56.929 9.24991 56.9648 9.35132C57.0007 9.45274 57.0338 9.55415 57.1056 9.62354C57.1774 9.69293 57.2464 9.72495 57.3512 9.75964C57.4561 9.79434 57.5969 9.79434 57.7735 9.79434H59.5675C59.7442 9.79434 59.8849 9.79434 59.9898 9.75964C60.0947 9.72495 60.1996 9.69293 60.2354 9.62354C60.3044 9.55682 60.3403 9.45274 60.3762 9.35132C60.4121 9.24991 60.4121 9.11381 60.4121 8.943V6.46106C60.4121 6.35965 60.448 6.32495 60.5528 6.32495H61.2566C61.3615 6.32495 61.3974 6.35965 61.3974 6.46106V9.04442C61.3974 9.35132 61.3615 9.58884 61.2925 9.79167C61.2235 9.9945 61.1159 10.1653 60.9751 10.3014C60.8344 10.4375 60.6577 10.5389 60.4121 10.5736C60.1664 10.6403 59.9208 10.675 59.5675 10.675H57.7045C57.3871 10.675 57.1056 10.6403 56.86 10.5736C56.6502 10.5069 56.4377 10.4028 56.2969 10.3014C56.1562 10.1653 56.0513 9.9945 55.9795 9.79167C55.9105 9.58884 55.8746 9.31663 55.8746 9.04442V6.46106C55.8746 6.35965 55.9105 6.32495 56.0154 6.32495H56.7192H56.7882Z" fill="white"/>
<path d="M64.1684 6.32495C64.2733 6.32495 64.345 6.32495 64.414 6.35965C64.483 6.35965 64.5548 6.39434 64.5907 6.42636C64.6266 6.46106 64.6956 6.49308 64.7314 6.56247C64.7673 6.62919 64.8004 6.69858 64.8722 6.79999L66.208 9.79167C66.2439 9.82636 66.2439 9.85839 66.3129 9.85839H66.3819C66.4178 9.85839 66.4509 9.8237 66.4868 9.79167L67.8226 6.79999C67.8585 6.69858 67.8916 6.62919 67.9634 6.56247C67.9993 6.49575 68.0324 6.46106 68.1042 6.42636C68.14 6.39167 68.209 6.35965 68.2808 6.35965C68.3526 6.35965 68.4216 6.32495 68.5264 6.32495H69.2302C69.44 6.32495 69.6166 6.35965 69.6884 6.46106C69.7574 6.56247 69.7933 6.73327 69.7933 6.97079V10.5389C69.7933 10.6403 69.7574 10.675 69.6525 10.675H68.9846C68.8797 10.675 68.8438 10.6403 68.8438 10.5389V7.2777C68.8438 7.243 68.808 7.21098 68.808 7.21098H68.739C68.7031 7.21098 68.67 7.24567 68.67 7.24567L67.37 10.0319C67.3341 10.1333 67.2651 10.2347 67.1934 10.3041C67.1216 10.3735 67.0885 10.4402 67.0167 10.5069C66.9477 10.5416 66.876 10.6083 66.807 10.6083C66.738 10.643 66.6303 10.643 66.5254 10.643H66.208C66.1032 10.643 65.9983 10.643 65.9265 10.6083C65.8548 10.5736 65.7858 10.5416 65.7168 10.5069C65.6478 10.4722 65.6119 10.4055 65.5401 10.3041C65.4711 10.2374 65.4352 10.1333 65.3635 10.0319L64.0635 7.24567C64.0635 7.21098 64.0276 7.21098 63.9945 7.21098H63.9255C63.8896 7.21098 63.8896 7.24567 63.8896 7.2777V10.5416C63.8896 10.643 63.8538 10.6777 63.7489 10.6777H63.0782C62.9733 10.6777 62.9374 10.643 62.9374 10.5416V6.97079C62.9374 6.73327 62.9733 6.56247 63.0423 6.46106C63.1113 6.35965 63.288 6.32495 63.5005 6.32495H64.2043H64.1684Z" fill="white"/>
</g>
<defs>
<clipPath id="clip0_3927_479">
<rect width="69" height="17" fill="white" transform="translate(0.757385)"/>
</clipPath>
</defs>
</svg>
