<svg width="97" height="18" viewBox="0 0 97 18" fill="none" xmlns="http://www.w3.org/2000/svg">
  <g clip-path="url(#clip0_3901_91)">
    <g clip-path="url(#clip1_3901_91)">
    <path d="M4.94144 3.78236L3.23225 2.79283L7.99999 0.00415039L12.7677 2.79283L11.0585 3.78236L7.99999 2.07317L4.94144 3.78236ZM14.0271 5.49155V7.56057L15.7363 6.57104V4.50202L14.0271 3.51249L12.3179 4.50202L14.0271 5.49155ZM6.2908 4.50202L7.99999 5.49155L9.70918 4.50202L7.99999 3.51249L6.2908 4.50202ZM12.7677 6.21121L11.0585 5.22168L7.99999 6.93086L4.94144 5.22168L3.23225 6.21121V8.28022L6.2908 9.98941V13.4978L7.99999 14.4873L9.70918 13.4978V9.98941L12.7677 8.28022V6.21121ZM14.0271 12.5082L11.0585 14.2174V16.2864L15.8263 13.4978V8.01035L14.0271 8.99988V12.5082ZM11.0585 12.7781L12.7677 11.7886V9.71954L11.0585 10.7091V12.7781ZM6.2908 14.9371V17.0061L7.99999 17.9956L9.70918 17.0061V14.9371L7.99999 15.9266L6.2908 14.9371ZM0.173706 6.57104L1.88289 7.56057V5.49155L3.68204 4.50202L1.97285 3.51249L0.173706 4.50202V6.57104ZM1.97285 8.99988L0.263663 8.01035V13.4978L5.0314 16.2864V14.2174L1.97285 12.5082V8.99988ZM4.94144 10.7091L3.23225 9.71954V11.7886L4.94144 12.7781V10.7091Z" fill="url(#paint0_linear_3901_91)"/>
    </g>
  </g>
  <path d="M24.8789 13V5H27.8086C28.3763 5 28.8464 5.09375 29.2188 5.28125C29.5911 5.46615 29.8698 5.71745 30.0547 6.03516C30.2396 6.35026 30.332 6.70573 30.332 7.10156C30.332 7.4349 30.2708 7.71615 30.1484 7.94531C30.026 8.17187 29.862 8.35417 29.6563 8.49219C29.4531 8.6276 29.2292 8.72656 28.9844 8.78906V8.86719C29.25 8.88021 29.5091 8.96615 29.7617 9.125C30.0169 9.28125 30.2279 9.50391 30.3945 9.79297C30.5612 10.082 30.6445 10.4336 30.6445 10.8477C30.6445 11.2565 30.5482 11.6237 30.3555 11.9492C30.1654 12.2721 29.8711 12.5286 29.4727 12.7187C29.0742 12.9062 28.5651 13 27.9453 13H24.8789ZM26.0859 11.9648H27.8281C28.4063 11.9648 28.8203 11.8529 29.0703 11.6289C29.3203 11.4049 29.4453 11.125 29.4453 10.7891C29.4453 10.5365 29.3815 10.3047 29.2539 10.0937C29.1263 9.88281 28.944 9.71484 28.707 9.58984C28.4727 9.46484 28.194 9.40234 27.8711 9.40234H26.0859V11.9648ZM26.0859 8.46094H27.7031C27.974 8.46094 28.2174 8.40885 28.4336 8.30469C28.6523 8.20052 28.8255 8.05469 28.9531 7.86719C29.0833 7.67708 29.1484 7.45312 29.1484 7.19531C29.1484 6.86458 29.0326 6.58724 28.8008 6.36328C28.569 6.13932 28.2135 6.02734 27.7344 6.02734H26.0859V8.46094ZM37.9395 7.10156C37.8978 6.73177 37.7259 6.44531 37.4238 6.24219C37.1217 6.03646 36.7415 5.93359 36.2832 5.93359C35.9551 5.93359 35.6712 5.98568 35.4316 6.08984C35.1921 6.19141 35.0059 6.33203 34.873 6.51172C34.7428 6.6888 34.6777 6.89062 34.6777 7.11719C34.6777 7.30729 34.722 7.47135 34.8105 7.60937C34.9017 7.7474 35.0202 7.86328 35.166 7.95703C35.3145 8.04818 35.4733 8.125 35.6426 8.1875C35.8118 8.2474 35.9746 8.29687 36.1309 8.33594L36.9121 8.53906C37.1673 8.60156 37.429 8.6862 37.6973 8.79297C37.9655 8.89974 38.2142 9.04036 38.4434 9.21484C38.6725 9.38932 38.8574 9.60547 38.998 9.86328C39.1413 10.1211 39.2129 10.4297 39.2129 10.7891C39.2129 11.2422 39.0957 11.6445 38.8613 11.9961C38.6296 12.3477 38.2923 12.625 37.8496 12.8281C37.4095 13.0313 36.877 13.1328 36.252 13.1328C35.653 13.1328 35.1348 13.0378 34.6973 12.8477C34.2598 12.6576 33.9173 12.388 33.6699 12.0391C33.4225 11.6875 33.2858 11.2708 33.2598 10.7891H34.4707C34.4941 11.0781 34.5879 11.319 34.752 11.5117C34.9186 11.7018 35.1309 11.8437 35.3887 11.9375C35.6491 12.0286 35.9342 12.0742 36.2441 12.0742C36.5853 12.0742 36.8887 12.0208 37.1543 11.9141C37.4225 11.8047 37.6335 11.6536 37.7871 11.4609C37.9408 11.2656 38.0176 11.0378 38.0176 10.7773C38.0176 10.5404 37.9499 10.3464 37.8145 10.1953C37.6816 10.0443 37.5007 9.91927 37.2715 9.82031C37.0449 9.72135 36.7884 9.63411 36.502 9.55859L35.5566 9.30078C34.916 9.1263 34.4082 8.86979 34.0332 8.53125C33.6608 8.19271 33.4746 7.74479 33.4746 7.1875C33.4746 6.72656 33.5996 6.32422 33.8496 5.98047C34.0996 5.63672 34.4382 5.36979 34.8652 5.17969C35.2923 4.98698 35.7741 4.89062 36.3105 4.89062C36.8522 4.89062 37.3301 4.98568 37.7441 5.17578C38.1608 5.36589 38.4889 5.6276 38.7285 5.96094C38.9681 6.29167 39.0931 6.67187 39.1035 7.10156H37.9395ZM48.7998 7.60156H47.5811C47.5342 7.34115 47.4469 7.11198 47.3193 6.91406C47.1917 6.71615 47.0355 6.54818 46.8506 6.41016C46.6657 6.27214 46.4587 6.16797 46.2295 6.09766C46.0029 6.02734 45.762 5.99219 45.5068 5.99219C45.0459 5.99219 44.6331 6.10807 44.2686 6.33984C43.9066 6.57161 43.6201 6.91146 43.4092 7.35937C43.2008 7.80729 43.0967 8.35417 43.0967 9C43.0967 9.65104 43.2008 10.2005 43.4092 10.6484C43.6201 11.0964 43.9079 11.4349 44.2725 11.6641C44.637 11.8932 45.0472 12.0078 45.5029 12.0078C45.7555 12.0078 45.9951 11.974 46.2217 11.9062C46.4508 11.8359 46.6579 11.7331 46.8428 11.5977C47.0277 11.4622 47.1839 11.2969 47.3115 11.1016C47.4417 10.9036 47.5316 10.6771 47.5811 10.4219L48.7998 10.4258C48.7347 10.819 48.6084 11.181 48.4209 11.5117C48.236 11.8398 47.9977 12.1237 47.7061 12.3633C47.417 12.6003 47.0863 12.7839 46.7139 12.9141C46.3415 13.0443 45.9352 13.1094 45.4951 13.1094C44.8024 13.1094 44.1852 12.9453 43.6436 12.6172C43.1019 12.2865 42.6748 11.8138 42.3623 11.1992C42.0524 10.5846 41.8975 9.85156 41.8975 9C41.8975 8.14583 42.0537 7.41276 42.3662 6.80078C42.6787 6.1862 43.1058 5.71484 43.6475 5.38672C44.1891 5.05599 44.805 4.89062 45.4951 4.89062C45.9196 4.89062 46.3154 4.95182 46.6826 5.07422C47.0524 5.19401 47.3844 5.37109 47.6787 5.60547C47.973 5.83724 48.2165 6.12109 48.4092 6.45703C48.6019 6.79036 48.7321 7.17187 48.7998 7.60156ZM62.7998 7.60156H61.5811C61.5342 7.34115 61.4469 7.11198 61.3193 6.91406C61.1917 6.71615 61.0355 6.54818 60.8506 6.41016C60.6657 6.27214 60.4587 6.16797 60.2295 6.09766C60.0029 6.02734 59.762 5.99219 59.5068 5.99219C59.0459 5.99219 58.6331 6.10807 58.2686 6.33984C57.9066 6.57161 57.6201 6.91146 57.4092 7.35937C57.2008 7.80729 57.0967 8.35417 57.0967 9C57.0967 9.65104 57.2008 10.2005 57.4092 10.6484C57.6201 11.0964 57.9079 11.4349 58.2725 11.6641C58.637 11.8932 59.0472 12.0078 59.5029 12.0078C59.7555 12.0078 59.9951 11.974 60.2217 11.9062C60.4508 11.8359 60.6579 11.7331 60.8428 11.5977C61.0277 11.4622 61.1839 11.2969 61.3115 11.1016C61.4417 10.9036 61.5316 10.6771 61.5811 10.4219L62.7998 10.4258C62.7347 10.819 62.6084 11.181 62.4209 11.5117C62.236 11.8398 61.9977 12.1237 61.7061 12.3633C61.417 12.6003 61.0863 12.7839 60.7139 12.9141C60.3415 13.0443 59.9352 13.1094 59.4951 13.1094C58.8024 13.1094 58.1852 12.9453 57.6436 12.6172C57.1019 12.2865 56.6748 11.8138 56.3623 11.1992C56.0524 10.5846 55.8975 9.85156 55.8975 9C55.8975 8.14583 56.0537 7.41276 56.3662 6.80078C56.6787 6.1862 57.1058 5.71484 57.6475 5.38672C58.1891 5.05599 58.805 4.89062 59.4951 4.89062C59.9196 4.89062 60.3154 4.95182 60.6826 5.07422C61.0524 5.19401 61.3844 5.37109 61.6787 5.60547C61.973 5.83724 62.2165 6.12109 62.4092 6.45703C62.6019 6.79036 62.7321 7.17187 62.7998 7.60156ZM65.7441 13V5H66.9512V8.47656H70.9395V5H72.1504V13H70.9395V9.51172H66.9512V13H65.7441ZM76.084 13H74.8027L77.6816 5H79.0762L81.9551 13H80.6738L78.4121 6.45312H78.3496L76.084 13ZM76.2988 9.86719H80.4551V10.8828H76.2988V9.86719ZM85.8174 5V13H84.6104V5H85.8174ZM95.5322 5V13H94.4229L90.3564 7.13281H90.2822V13H89.0752V5H90.1924L94.2627 10.875H94.3369V5H95.5322Z" fill="white"/>
  <defs>
    <linearGradient id="paint0_linear_3901_91" x1="7.99999" y1="0.00415039" x2="7.99999" y2="17.9956" gradientUnits="userSpaceOnUse">
      <stop stop-color="#F9D230"/>
      <stop offset="1" stop-color="#F0B90C"/>
    </linearGradient>
    <clipPath id="clip0_3901_91">
    <rect width="16" height="18" fill="white"/>
    </clipPath>
    <clipPath id="clip1_3901_91">
      <rect width="15.5626" height="17.9915" fill="white" transform="translate(0.173706 0.00415039)"/>
    </clipPath>
  </defs>
</svg>