<svg width="103" height="24" viewBox="0 0 103 24" fill="none" xmlns="http://www.w3.org/2000/svg">
  <g clip-path="url(#clip0_3901_79)">
    <path d="M12 24C18.6274 24 24 18.6274 24 12C24 5.37258 18.6274 0 12 0C5.37258 0 0 5.37258 0 12C0 18.6274 5.37258 24 12 24Z" fill="#627EEA"/>
    <path d="M12.3735 3V9.65251L17.9963 12.165L12.3735 3Z" fill="white" fill-opacity="0.602"/>
    <path d="M12.3737 3L6.75018 12.165L12.3737 9.65251V3Z" fill="white"/>
    <path d="M12.3735 16.4759V20.9962L18 13.2119L12.3735 16.4759Z" fill="white" fill-opacity="0.602"/>
    <path d="M12.3735 20.9962V16.4751L6.75003 13.2119L12.3735 20.9962Z" fill="white"/>
    <path d="M12.3735 15.4298L17.9963 12.165L12.3735 9.65405V15.4298Z" fill="white" fill-opacity="0.2"/>
    <path d="M6.74994 12.165L12.3734 15.4298V9.65405L6.74994 12.165Z" fill="white" fill-opacity="0.602"/>
  </g>
  <path d="M32.8789 16.5V8.5H37.8945V9.53906H34.0859V11.9766H37.6328V13.0117H34.0859V15.4609H37.9414V16.5H32.8789ZM40.6123 9.53906V8.5H46.8037V9.53906H44.3076V16.5H43.1045V9.53906H40.6123ZM49.6719 16.5V8.5H50.8789V11.9766H54.8672V8.5H56.0781V16.5H54.8672V13.0117H50.8789V16.5H49.6719ZM59.3359 16.5V8.5H64.3516V9.53906H60.543V11.9766H64.0898V13.0117H60.543V15.4609H64.3984V16.5H59.3359ZM67.4639 16.5V8.5H70.3154C70.9352 8.5 71.4495 8.60677 71.8584 8.82031C72.2699 9.03385 72.5771 9.32943 72.7803 9.70703C72.9834 10.082 73.085 10.5156 73.085 11.0078C73.085 11.4974 72.9821 11.9284 72.7764 12.3008C72.5732 12.6706 72.266 12.9583 71.8545 13.1641C71.4456 13.3698 70.9313 13.4727 70.3115 13.4727H68.1514V12.4336H70.2021C70.5928 12.4336 70.9105 12.3776 71.1553 12.2656C71.4027 12.1536 71.5837 11.9909 71.6982 11.7773C71.8128 11.5638 71.8701 11.3073 71.8701 11.0078C71.8701 10.7057 71.8115 10.444 71.6943 10.2227C71.5798 10.0013 71.3988 9.83203 71.1514 9.71484C70.9066 9.59505 70.585 9.53516 70.1865 9.53516H68.6709V16.5H67.4639ZM71.4131 12.8906L73.3896 16.5H72.0146L70.0771 12.8906H71.4131ZM76.0537 16.5V8.5H81.0693V9.53906H77.2607V11.9766H80.8076V13.0117H77.2607V15.4609H81.1162V16.5H76.0537ZM89.3262 8.5H90.5371V13.7617C90.5371 14.3216 90.4056 14.8177 90.1426 15.25C89.8796 15.6797 89.5098 16.0182 89.0332 16.2656C88.5566 16.5104 87.998 16.6328 87.3574 16.6328C86.7194 16.6328 86.1621 16.5104 85.6855 16.2656C85.209 16.0182 84.8392 15.6797 84.5762 15.25C84.3132 14.8177 84.1816 14.3216 84.1816 13.7617V8.5H85.3887V13.6641C85.3887 14.026 85.4681 14.3477 85.627 14.6289C85.7884 14.9102 86.0163 15.1315 86.3105 15.293C86.6048 15.4518 86.9538 15.5312 87.3574 15.5312C87.7637 15.5312 88.1139 15.4518 88.4082 15.293C88.7051 15.1315 88.9316 14.9102 89.0879 14.6289C89.2467 14.3477 89.3262 14.026 89.3262 13.6641V8.5ZM93.792 8.5H95.2568L97.8037 14.7187H97.8975L100.444 8.5H101.909V16.5H100.761V10.7109H100.687L98.3271 16.4883H97.374L95.0146 10.707H94.9404V16.5H93.792V8.5Z" fill="white"/>
  <defs>
    <clipPath id="clip0_3901_79">
      <rect width="24" height="24" fill="white"/>
    </clipPath>
  </defs>
</svg>