<svg width="552" height="458" viewBox="0 0 552 458" fill="none" xmlns="http://www.w3.org/2000/svg">
<rect x="0.5" y="0.5" width="621" height="548" rx="11.5" fill="url(#paint0_linear_4159_7639)"/>
<path d="M77.5 134C77.5 130.962 79.9624 128.5 83 128.5H498C501.038 128.5 503.5 130.962 503.5 134V165C503.5 168.038 501.038 170.5 498 170.5H83C79.9624 170.5 77.5 168.038 77.5 165V134Z" fill="#18181A"/>
<path d="M77.5 134C77.5 130.962 79.9624 128.5 83 128.5H498C501.038 128.5 503.5 130.962 503.5 134V165C503.5 168.038 501.038 170.5 498 170.5H83C79.9624 170.5 77.5 168.038 77.5 165V134Z" stroke="#2E2E30"/>
<path d="M42.4902 140.23L37.5002 142.11C36.3502 142.54 35.4102 143.9 35.4102 145.12V152.55C35.4102 153.73 36.1902 155.28 37.1402 155.99L41.4402 159.2C42.8502 160.26 45.1702 160.26 46.5802 159.2L50.8802 155.99C51.8302 155.28 52.6102 153.73 52.6102 152.55V145.12C52.6102 143.89 51.6702 142.53 50.5202 142.1L45.5302 140.23C44.6802 139.92 43.3202 139.92 42.4902 140.23Z" stroke="#4E9F72" stroke-width="1.5" stroke-linecap="round" stroke-linejoin="round"/>
<path d="M41.0498 149.87L42.6598 151.48L46.9598 147.18" stroke="#4E9F72" stroke-width="1.5" stroke-linecap="round" stroke-linejoin="round"/>
<path d="M77.5 193C77.5 189.962 79.9624 187.5 83 187.5H498C501.038 187.5 503.5 189.962 503.5 193V224C503.5 227.038 501.038 229.5 498 229.5H83C79.9624 229.5 77.5 227.038 77.5 224V193Z" fill="#18181A"/>
<path d="M77.5 193C77.5 189.962 79.9624 187.5 83 187.5H498C501.038 187.5 503.5 189.962 503.5 193V224C503.5 227.038 501.038 229.5 498 229.5H83C79.9624 229.5 77.5 227.038 77.5 224V193Z" stroke="#2E2E30"/>
<path d="M42.4902 199.23L37.5002 201.11C36.3502 201.54 35.4102 202.9 35.4102 204.12V211.55C35.4102 212.73 36.1902 214.28 37.1402 214.99L41.4402 218.2C42.8502 219.26 45.1702 219.26 46.5802 218.2L50.8802 214.99C51.8302 214.28 52.6102 212.73 52.6102 211.55V204.12C52.6102 202.89 51.6702 201.53 50.5202 201.1L45.5302 199.23C44.6802 198.92 43.3202 198.92 42.4902 199.23Z" stroke="#4E9F72" stroke-width="1.5" stroke-linecap="round" stroke-linejoin="round"/>
<path d="M41.0498 208.87L42.6598 210.48L46.9598 206.18" stroke="#4E9F72" stroke-width="1.5" stroke-linecap="round" stroke-linejoin="round"/>
<path d="M77.5 252C77.5 248.962 79.9624 246.5 83 246.5H498C501.038 246.5 503.5 248.962 503.5 252V283C503.5 286.038 501.038 288.5 498 288.5H83C79.9624 288.5 77.5 286.038 77.5 283V252Z" fill="#18181A"/>
<path d="M77.5 252C77.5 248.962 79.9624 246.5 83 246.5H498C501.038 246.5 503.5 248.962 503.5 252V283C503.5 286.038 501.038 288.5 498 288.5H83C79.9624 288.5 77.5 286.038 77.5 283V252Z" stroke="#2E2E30"/>
<path d="M42.4902 258.23L37.5002 260.11C36.3502 260.54 35.4102 261.9 35.4102 263.12V270.55C35.4102 271.73 36.1902 273.28 37.1402 273.99L41.4402 277.2C42.8502 278.26 45.1702 278.26 46.5802 277.2L50.8802 273.99C51.8302 273.28 52.6102 271.73 52.6102 270.55V263.12C52.6102 261.89 51.6702 260.53 50.5202 260.1L45.5302 258.23C44.6802 257.92 43.3202 257.92 42.4902 258.23Z" stroke="#4E9F72" stroke-width="1.5" stroke-linecap="round" stroke-linejoin="round"/>
<path d="M41.0498 267.87L42.6598 269.48L46.9598 265.18" stroke="#4E9F72" stroke-width="1.5" stroke-linecap="round" stroke-linejoin="round"/>
<rect x="158" y="32" width="32" height="32" rx="6" fill="#222224"/>
<path d="M180.666 46.6663V49.9997C180.666 53.333 179.333 54.6663 176 54.6663H172C168.666 54.6663 167.333 53.333 167.333 49.9997V45.9997C167.333 42.6663 168.666 41.333 172 41.333H175.333" stroke="#EB7E00" stroke-width="1.5" stroke-linecap="round" stroke-linejoin="round"/>
<path d="M180.666 46.6663H178C176 46.6663 175.333 45.9997 175.333 43.9997V41.333L180.666 46.6663Z" stroke="#EB7E00" stroke-width="1.5" stroke-linecap="round" stroke-linejoin="round"/>
<path d="M170.667 48.667H174.667" stroke="#EB7E00" stroke-width="1.5" stroke-linecap="round" stroke-linejoin="round"/>
<path d="M170.667 51.333H173.334" stroke="#EB7E00" stroke-width="1.5" stroke-linecap="round" stroke-linejoin="round"/>
<rect x="245" y="32" width="32" height="32" rx="6" fill="#222224"/>
<path d="M267.666 48.6663V45.9997C267.666 42.6663 266.333 41.333 263 41.333H259C255.666 41.333 254.333 42.6663 254.333 45.9997V49.9997C254.333 53.333 255.666 54.6663 259 54.6663H262.333" stroke="#EB7E00" stroke-width="1.5" stroke-linecap="round" stroke-linejoin="round"/>
<path d="M265.667 50.667V54.667L267 53.3337" stroke="#EB7E00" stroke-width="1.5" stroke-linecap="round" stroke-linejoin="round"/>
<path d="M265.666 54.6663L264.333 53.333" stroke="#EB7E00" stroke-width="1.5" stroke-linecap="round" stroke-linejoin="round"/>
<path d="M259.634 44.1729L258.934 50.4862" stroke="#EB7E00" stroke-width="1.5" stroke-linecap="round" stroke-linejoin="round"/>
<path d="M261.74 44.1729L261.04 50.4862" stroke="#EB7E00" stroke-width="1.5" stroke-linecap="round" stroke-linejoin="round"/>
<path d="M257.354 46.2803H263.667" stroke="#EB7E00" stroke-width="1.5" stroke-linecap="round" stroke-linejoin="round"/>
<path d="M257 48.3867H263.313" stroke="#EB7E00" stroke-width="1.5" stroke-linecap="round" stroke-linejoin="round"/>
<rect x="332" y="32" width="32" height="32" rx="6" fill="#222224"/>
<path d="M352.88 46.6665H343.127C342.14 46.6665 341.34 45.8599 341.34 44.8799V43.1265C341.34 42.1398 342.147 41.3398 343.127 41.3398H352.88C353.867 41.3398 354.667 42.1465 354.667 43.1265V44.8799C354.667 45.8599 353.86 46.6665 352.88 46.6665Z" stroke="#EB7E00" stroke-width="1.5" stroke-linecap="round" stroke-linejoin="round"/>
<path d="M352.88 54.6665H343.127C342.14 54.6665 341.34 53.8599 341.34 52.8799V51.1265C341.34 50.1398 342.147 49.3398 343.127 49.3398H352.88C353.867 49.3398 354.667 50.1465 354.667 51.1265V52.8799C354.667 53.8599 353.86 54.6665 352.88 54.6665Z" stroke="#EB7E00" stroke-width="1.5" stroke-linecap="round" stroke-linejoin="round"/>
<path d="M344 43.333V44.6663" stroke="#EB7E00" stroke-width="1.5" stroke-linecap="round" stroke-linejoin="round"/>
<path d="M346.667 43.333V44.6663" stroke="#EB7E00" stroke-width="1.5" stroke-linecap="round" stroke-linejoin="round"/>
<path d="M344 51.333V52.6663" stroke="#EB7E00" stroke-width="1.5" stroke-linecap="round" stroke-linejoin="round"/>
<path d="M346.667 51.333V52.6663" stroke="#EB7E00" stroke-width="1.5" stroke-linecap="round" stroke-linejoin="round"/>
<path d="M349.333 44H352" stroke="#EB7E00" stroke-width="1.5" stroke-linecap="round" stroke-linejoin="round"/>
<path d="M349.333 52H352" stroke="#EB7E00" stroke-width="1.5" stroke-linecap="round" stroke-linejoin="round"/>
<path d="M245.354 47.3536C245.549 47.1583 245.549 46.8417 245.354 46.6464L242.172 43.4645C241.976 43.2692 241.66 43.2692 241.464 43.4645C241.269 43.6597 241.269 43.9763 241.464 44.1716L244.293 47L241.464 49.8284C241.269 50.0237 241.269 50.3403 241.464 50.5355C241.66 50.7308 241.976 50.7308 242.172 50.5355L245.354 47.3536ZM190 47.5H245V46.5H190V47.5Z" fill="#3C3C40"/>
<path d="M332.354 47.3536C332.549 47.1583 332.549 46.8417 332.354 46.6464L329.172 43.4645C328.976 43.2692 328.66 43.2692 328.464 43.4645C328.269 43.6597 328.269 43.9763 328.464 44.1716L331.293 47L328.464 49.8284C328.269 50.0237 328.269 50.3403 328.464 50.5355C328.66 50.7308 328.976 50.7308 329.172 50.5355L332.354 47.3536ZM277 47.5H332V46.5H277V47.5Z" fill="#3C3C40"/>
<path d="M44.6464 116.354C44.8417 116.549 45.1583 116.549 45.3536 116.354L48.5355 113.172C48.7308 112.976 48.7308 112.66 48.5355 112.464C48.3403 112.269 48.0237 112.269 47.8284 112.464L45 115.293L42.1716 112.464C41.9763 112.269 41.6597 112.269 41.4645 112.464C41.2692 112.66 41.2692 112.976 41.4645 113.172L44.6464 116.354ZM348.5 66V81.8H349.5V66H348.5ZM338 92.3H56V93.3H338V92.3ZM44.5 103.8V116H45.5V103.8H44.5ZM56 92.3C49.6487 92.3 44.5 97.4487 44.5 103.8H45.5C45.5 98.001 50.201 93.3 56 93.3V92.3ZM348.5 81.8C348.5 87.599 343.799 92.3 338 92.3V93.3C344.351 93.3 349.5 88.1513 349.5 81.8H348.5Z" fill="#3C3C40"/>
<rect width="550" height="162" fill="url(#paint1_linear_4159_7639)"/>
<rect width="553" height="270" transform="matrix(1 0 0 -1 0 457)" fill="url(#paint2_linear_4159_7639)"/>
<circle cx="109" cy="93" r="8" fill="#EB7E00" fill-opacity="0.4"/>
<circle cx="109" cy="93" r="4" fill="#EB7E00"/>
<rect x="35" y="350" width="32" height="32" rx="6" fill="#1D1D1F"/>
<path d="M57.6663 364.666V368C57.6663 371.333 56.333 372.666 52.9997 372.666H48.9997C45.6663 372.666 44.333 371.333 44.333 368V364C44.333 360.666 45.6663 359.333 48.9997 359.333H52.333" stroke="#EB7E00" stroke-width="1.5" stroke-linecap="round" stroke-linejoin="round"/>
<path d="M57.6663 364.666H54.9997C52.9997 364.666 52.333 364 52.333 362V359.333L57.6663 364.666Z" stroke="#EB7E00" stroke-width="1.5" stroke-linecap="round" stroke-linejoin="round"/>
<path d="M47.667 366.667H51.667" stroke="#EB7E00" stroke-width="1.5" stroke-linecap="round" stroke-linejoin="round"/>
<path d="M47.667 369.333H50.3337" stroke="#EB7E00" stroke-width="1.5" stroke-linecap="round" stroke-linejoin="round"/>
<path d="M35.8693 406.315V404.909H45.6875V406.315H41.571V418H39.9858V406.315H35.8693ZM50.4943 418.205C49.608 418.205 48.8303 417.994 48.1612 417.572C47.4964 417.15 46.9766 416.56 46.6016 415.801C46.2308 415.043 46.0455 414.156 46.0455 413.142C46.0455 412.119 46.2308 411.227 46.6016 410.464C46.9766 409.701 47.4964 409.109 48.1612 408.687C48.8303 408.265 49.608 408.054 50.4943 408.054C51.3807 408.054 52.1563 408.265 52.821 408.687C53.4901 409.109 54.0099 409.701 54.3807 410.464C54.7557 411.227 54.9432 412.119 54.9432 413.142C54.9432 414.156 54.7557 415.043 54.3807 415.801C54.0099 416.56 53.4901 417.15 52.821 417.572C52.1563 417.994 51.3807 418.205 50.4943 418.205ZM50.4943 416.849C51.1676 416.849 51.7216 416.677 52.1562 416.332C52.5909 415.987 52.9126 415.533 53.1214 414.97C53.3303 414.408 53.4347 413.798 53.4347 413.142C53.4347 412.486 53.3303 411.874 53.1214 411.308C52.9126 410.741 52.5909 410.283 52.1562 409.933C51.7216 409.584 51.1676 409.409 50.4943 409.409C49.821 409.409 49.267 409.584 48.8324 409.933C48.3977 410.283 48.076 410.741 47.8672 411.308C47.6584 411.874 47.554 412.486 47.554 413.142C47.554 413.798 47.6584 414.408 47.8672 414.97C48.076 415.533 48.3977 415.987 48.8324 416.332C49.267 416.677 49.821 416.849 50.4943 416.849ZM58.6522 414.42L58.6266 412.554H58.9334L63.2289 408.182H65.0953L60.5186 412.81H60.3908L58.6522 414.42ZM57.2459 418V404.909H58.7544V418H57.2459ZM63.4846 418L59.6493 413.142L60.7232 412.094L65.4022 418H63.4846ZM70.7491 418.205C69.8031 418.205 68.987 417.996 68.301 417.578C67.6191 417.156 67.0929 416.568 66.7221 415.814C66.3556 415.055 66.1724 414.173 66.1724 413.168C66.1724 412.162 66.3556 411.276 66.7221 410.509C67.0929 409.737 67.6085 409.136 68.269 408.706C68.9338 408.271 69.7093 408.054 70.5957 408.054C71.1071 408.054 71.612 408.139 72.1106 408.31C72.6092 408.48 73.063 408.757 73.4721 409.141C73.8812 409.52 74.2072 410.023 74.4501 410.649C74.693 411.276 74.8145 412.047 74.8145 412.963V413.602H67.2463V412.298H73.2804C73.2804 411.744 73.1696 411.25 72.948 410.815C72.7306 410.381 72.4196 410.038 72.0147 409.786C71.6142 409.535 71.1412 409.409 70.5957 409.409C69.9949 409.409 69.475 409.558 69.036 409.857C68.6014 410.151 68.2669 410.534 68.0325 411.007C67.7981 411.48 67.6809 411.987 67.6809 412.528V413.398C67.6809 414.139 67.8088 414.768 68.0645 415.283C68.3244 415.795 68.6845 416.185 69.1447 416.453C69.6049 416.717 70.1397 416.849 70.7491 416.849C71.1454 416.849 71.5034 416.794 71.823 416.683C72.1468 416.568 72.426 416.398 72.6603 416.172C72.8947 415.942 73.0758 415.656 73.2037 415.315L74.661 415.724C74.5076 416.219 74.2498 416.653 73.8876 417.028C73.5254 417.399 73.0779 417.689 72.5453 417.898C72.0126 418.102 71.4139 418.205 70.7491 418.205ZM78.6177 412.094V418H77.1092V408.182H78.5666V409.716H78.6944C78.9245 409.217 79.274 408.817 79.7427 408.514C80.2115 408.207 80.8166 408.054 81.5581 408.054C82.2228 408.054 82.8045 408.19 83.3031 408.463C83.8017 408.732 84.1895 409.141 84.4664 409.69C84.7434 410.236 84.8819 410.926 84.8819 411.761V418H83.3734V411.864C83.3734 411.092 83.1731 410.491 82.7726 410.061C82.372 409.626 81.8223 409.409 81.1234 409.409C80.6419 409.409 80.2115 409.513 79.8322 409.722C79.4572 409.931 79.161 410.236 78.9437 410.636C78.7264 411.037 78.6177 411.523 78.6177 412.094ZM96.6896 418.205C95.8033 418.205 95.0256 417.994 94.3565 417.572C93.6918 417.15 93.1719 416.56 92.7969 415.801C92.4261 415.043 92.2408 414.156 92.2408 413.142C92.2408 412.119 92.4261 411.227 92.7969 410.464C93.1719 409.701 93.6918 409.109 94.3565 408.687C95.0256 408.265 95.8033 408.054 96.6896 408.054C97.576 408.054 98.3516 408.265 99.0163 408.687C99.6854 409.109 100.205 409.701 100.576 410.464C100.951 411.227 101.138 412.119 101.138 413.142C101.138 414.156 100.951 415.043 100.576 415.801C100.205 416.56 99.6854 417.15 99.0163 417.572C98.3516 417.994 97.576 418.205 96.6896 418.205ZM96.6896 416.849C97.3629 416.849 97.9169 416.677 98.3516 416.332C98.7862 415.987 99.108 415.533 99.3168 414.97C99.5256 414.408 99.63 413.798 99.63 413.142C99.63 412.486 99.5256 411.874 99.3168 411.308C99.108 410.741 98.7862 410.283 98.3516 409.933C97.9169 409.584 97.3629 409.409 96.6896 409.409C96.0163 409.409 95.4624 409.584 95.0277 409.933C94.593 410.283 94.2713 410.741 94.0625 411.308C93.8537 411.874 93.7493 412.486 93.7493 413.142C93.7493 413.798 93.8537 414.408 94.0625 414.97C94.2713 415.533 94.593 415.987 95.0277 416.332C95.4624 416.677 96.0163 416.849 96.6896 416.849ZM104.95 412.094V418H103.441V408.182H104.899V409.716H105.026C105.257 409.217 105.606 408.817 106.075 408.514C106.544 408.207 107.149 408.054 107.89 408.054C108.555 408.054 109.137 408.19 109.635 408.463C110.134 408.732 110.521 409.141 110.798 409.69C111.075 410.236 111.214 410.926 111.214 411.761V418H109.705V411.864C109.705 411.092 109.505 410.491 109.105 410.061C108.704 409.626 108.154 409.409 107.455 409.409C106.974 409.409 106.544 409.513 106.164 409.722C105.789 409.931 105.493 410.236 105.276 410.636C105.058 411.037 104.95 411.523 104.95 412.094ZM123.303 408.182V409.46H118.215V408.182H123.303ZM119.698 405.83H121.206V415.188C121.206 415.614 121.268 415.933 121.392 416.146C121.52 416.355 121.681 416.496 121.877 416.568C122.078 416.636 122.289 416.67 122.51 416.67C122.676 416.67 122.813 416.662 122.919 416.645C123.026 416.624 123.111 416.607 123.175 416.594L123.482 417.949C123.38 417.987 123.237 418.026 123.054 418.064C122.87 418.107 122.638 418.128 122.357 418.128C121.931 418.128 121.513 418.036 121.104 417.853C120.699 417.67 120.363 417.391 120.094 417.016C119.83 416.641 119.698 416.168 119.698 415.597V405.83ZM127.292 412.094V418H125.783V404.909H127.292V409.716H127.419C127.65 409.209 127.995 408.806 128.455 408.508C128.919 408.205 129.537 408.054 130.309 408.054C130.978 408.054 131.564 408.188 132.066 408.457C132.569 408.721 132.959 409.128 133.236 409.678C133.517 410.223 133.658 410.918 133.658 411.761V418H132.15V411.864C132.15 411.084 131.947 410.481 131.542 410.055C131.142 409.624 130.586 409.409 129.874 409.409C129.38 409.409 128.936 409.513 128.544 409.722C128.157 409.931 127.85 410.236 127.624 410.636C127.402 411.037 127.292 411.523 127.292 412.094ZM140.534 418.205C139.588 418.205 138.772 417.996 138.086 417.578C137.404 417.156 136.878 416.568 136.507 415.814C136.141 415.055 135.958 414.173 135.958 413.168C135.958 412.162 136.141 411.276 136.507 410.509C136.878 409.737 137.394 409.136 138.054 408.706C138.719 408.271 139.494 408.054 140.381 408.054C140.892 408.054 141.397 408.139 141.896 408.31C142.394 408.48 142.848 408.757 143.257 409.141C143.666 409.52 143.992 410.023 144.235 410.649C144.478 411.276 144.6 412.047 144.6 412.963V413.602H137.031V412.298H143.066C143.066 411.744 142.955 411.25 142.733 410.815C142.516 410.381 142.205 410.038 141.8 409.786C141.399 409.535 140.926 409.409 140.381 409.409C139.78 409.409 139.26 409.558 138.821 409.857C138.387 410.151 138.052 410.534 137.818 411.007C137.583 411.48 137.466 411.987 137.466 412.528V413.398C137.466 414.139 137.594 414.768 137.85 415.283C138.11 415.795 138.47 416.185 138.93 416.453C139.39 416.717 139.925 416.849 140.534 416.849C140.931 416.849 141.289 416.794 141.608 416.683C141.932 416.568 142.211 416.398 142.445 416.172C142.68 415.942 142.861 415.656 142.989 415.315L144.446 415.724C144.293 416.219 144.035 416.653 143.673 417.028C143.311 417.399 142.863 417.689 142.33 417.898C141.798 418.102 141.199 418.205 140.534 418.205ZM152.161 418V404.909H153.67V409.741H153.798C153.909 409.571 154.062 409.354 154.258 409.089C154.458 408.821 154.744 408.582 155.115 408.374C155.49 408.161 155.997 408.054 156.636 408.054C157.463 408.054 158.191 408.261 158.822 408.674C159.453 409.087 159.945 409.673 160.298 410.432C160.652 411.19 160.829 412.085 160.829 413.116C160.829 414.156 160.652 415.058 160.298 415.82C159.945 416.579 159.455 417.167 158.828 417.585C158.202 417.998 157.48 418.205 156.661 418.205C156.031 418.205 155.526 418.1 155.146 417.891C154.767 417.678 154.475 417.437 154.271 417.169C154.066 416.896 153.909 416.67 153.798 416.491H153.619V418H152.161ZM153.644 413.091C153.644 413.832 153.753 414.487 153.97 415.053C154.188 415.616 154.505 416.057 154.923 416.376C155.34 416.692 155.852 416.849 156.457 416.849C157.088 416.849 157.614 416.683 158.036 416.351C158.462 416.014 158.781 415.562 158.994 414.996C159.212 414.425 159.32 413.79 159.32 413.091C159.32 412.401 159.214 411.778 159.001 411.224C158.792 410.666 158.475 410.225 158.048 409.901C157.627 409.573 157.096 409.409 156.457 409.409C155.843 409.409 155.328 409.565 154.91 409.876C154.492 410.183 154.177 410.613 153.964 411.167C153.751 411.717 153.644 412.358 153.644 413.091ZM164.645 404.909V418H163.137V404.909H164.645ZM171.397 418.205C170.51 418.205 169.733 417.994 169.064 417.572C168.399 417.15 167.879 416.56 167.504 415.801C167.133 415.043 166.948 414.156 166.948 413.142C166.948 412.119 167.133 411.227 167.504 410.464C167.879 409.701 168.399 409.109 169.064 408.687C169.733 408.265 170.51 408.054 171.397 408.054C172.283 408.054 173.059 408.265 173.723 408.687C174.392 409.109 174.912 409.701 175.283 410.464C175.658 411.227 175.846 412.119 175.846 413.142C175.846 414.156 175.658 415.043 175.283 415.801C174.912 416.56 174.392 417.15 173.723 417.572C173.059 417.994 172.283 418.205 171.397 418.205ZM171.397 416.849C172.07 416.849 172.624 416.677 173.059 416.332C173.493 415.987 173.815 415.533 174.024 414.97C174.233 414.408 174.337 413.798 174.337 413.142C174.337 412.486 174.233 411.874 174.024 411.308C173.815 410.741 173.493 410.283 173.059 409.933C172.624 409.584 172.07 409.409 171.397 409.409C170.723 409.409 170.169 409.584 169.735 409.933C169.3 410.283 168.978 410.741 168.77 411.308C168.561 411.874 168.456 412.486 168.456 413.142C168.456 413.798 168.561 414.408 168.77 414.97C168.978 415.533 169.3 415.987 169.735 416.332C170.169 416.677 170.723 416.849 171.397 416.849ZM182.137 418.205C181.216 418.205 180.424 417.987 179.759 417.553C179.094 417.118 178.583 416.519 178.225 415.756C177.867 414.994 177.688 414.122 177.688 413.142C177.688 412.145 177.871 411.265 178.238 410.502C178.608 409.735 179.124 409.136 179.785 408.706C180.449 408.271 181.225 408.054 182.111 408.054C182.802 408.054 183.424 408.182 183.978 408.438C184.532 408.693 184.986 409.051 185.339 409.511C185.693 409.972 185.912 410.509 185.998 411.122H184.489C184.374 410.675 184.118 410.278 183.722 409.933C183.33 409.584 182.802 409.409 182.137 409.409C181.549 409.409 181.033 409.562 180.59 409.869C180.151 410.172 179.808 410.6 179.561 411.154C179.318 411.704 179.197 412.349 179.197 413.091C179.197 413.849 179.316 414.51 179.555 415.072C179.797 415.635 180.138 416.072 180.577 416.383C181.02 416.694 181.54 416.849 182.137 416.849C182.529 416.849 182.885 416.781 183.204 416.645C183.524 416.509 183.795 416.312 184.016 416.057C184.238 415.801 184.395 415.494 184.489 415.136H185.998C185.912 415.716 185.702 416.238 185.365 416.702C185.032 417.163 184.591 417.529 184.042 417.802C183.496 418.07 182.861 418.205 182.137 418.205ZM189.609 414.42L189.584 412.554H189.89L194.186 408.182H196.052L191.476 412.81H191.348L189.609 414.42ZM188.203 418V404.909H189.711V418H188.203ZM194.442 418L190.606 413.142L191.68 412.094L196.359 418H194.442ZM201.578 418.205C200.658 418.205 199.865 417.987 199.2 417.553C198.536 417.118 198.024 416.519 197.666 415.756C197.308 414.994 197.129 414.122 197.129 413.142C197.129 412.145 197.313 411.265 197.679 410.502C198.05 409.735 198.566 409.136 199.226 408.706C199.891 408.271 200.666 408.054 201.553 408.054C202.243 408.054 202.865 408.182 203.419 408.438C203.973 408.693 204.427 409.051 204.781 409.511C205.134 409.972 205.354 410.509 205.439 411.122H203.931C203.816 410.675 203.56 410.278 203.164 409.933C202.771 409.584 202.243 409.409 201.578 409.409C200.99 409.409 200.475 409.562 200.031 409.869C199.593 410.172 199.249 410.6 199.002 411.154C198.759 411.704 198.638 412.349 198.638 413.091C198.638 413.849 198.757 414.51 198.996 415.072C199.239 415.635 199.58 416.072 200.019 416.383C200.462 416.694 200.982 416.849 201.578 416.849C201.97 416.849 202.326 416.781 202.646 416.645C202.965 416.509 203.236 416.312 203.458 416.057C203.679 415.801 203.837 415.494 203.931 415.136H205.439C205.354 415.716 205.143 416.238 204.806 416.702C204.474 417.163 204.033 417.529 203.483 417.802C202.938 418.07 202.303 418.205 201.578 418.205ZM209.153 412.094V418H207.644V404.909H209.153V409.716H209.281C209.511 409.209 209.856 408.806 210.316 408.508C210.781 408.205 211.399 408.054 212.17 408.054C212.839 408.054 213.425 408.188 213.928 408.457C214.431 408.721 214.82 409.128 215.097 409.678C215.379 410.223 215.519 410.918 215.519 411.761V418H214.011V411.864C214.011 411.084 213.808 410.481 213.404 410.055C213.003 409.624 212.447 409.409 211.735 409.409C211.241 409.409 210.798 409.513 210.406 409.722C210.018 409.931 209.711 410.236 209.485 410.636C209.264 411.037 209.153 411.523 209.153 412.094ZM221.168 418.23C220.546 418.23 219.982 418.113 219.474 417.879C218.967 417.64 218.565 417.297 218.266 416.849C217.968 416.398 217.819 415.852 217.819 415.213C217.819 414.651 217.93 414.195 218.151 413.845C218.373 413.491 218.669 413.214 219.04 413.014C219.411 412.814 219.82 412.665 220.267 412.567C220.719 412.464 221.173 412.384 221.629 412.324C222.225 412.247 222.709 412.19 223.08 412.151C223.455 412.109 223.727 412.038 223.898 411.94C224.072 411.842 224.16 411.672 224.16 411.429V411.378C224.16 410.747 223.987 410.257 223.642 409.908C223.301 409.558 222.783 409.384 222.089 409.384C221.369 409.384 220.804 409.541 220.395 409.857C219.986 410.172 219.698 410.509 219.532 410.866L218.1 410.355C218.356 409.759 218.697 409.294 219.123 408.962C219.553 408.625 220.022 408.391 220.529 408.259C221.04 408.122 221.543 408.054 222.038 408.054C222.353 408.054 222.715 408.092 223.124 408.169C223.538 408.241 223.936 408.393 224.32 408.623C224.707 408.853 225.029 409.2 225.285 409.665C225.54 410.129 225.668 410.751 225.668 411.531V418H224.16V416.67H224.083C223.981 416.884 223.81 417.112 223.572 417.354C223.333 417.597 223.016 417.804 222.619 417.974C222.223 418.145 221.739 418.23 221.168 418.23ZM221.398 416.875C221.995 416.875 222.498 416.758 222.907 416.523C223.32 416.289 223.631 415.987 223.84 415.616C224.053 415.245 224.16 414.855 224.16 414.446V413.065C224.096 413.142 223.955 413.212 223.738 413.276C223.525 413.336 223.278 413.389 222.996 413.436C222.719 413.479 222.449 413.517 222.185 413.551C221.925 413.581 221.714 413.607 221.552 413.628C221.16 413.679 220.793 413.762 220.452 413.877C220.116 413.988 219.843 414.156 219.634 414.382C219.43 414.604 219.327 414.906 219.327 415.29C219.327 415.814 219.521 416.21 219.909 416.479C220.301 416.743 220.798 416.875 221.398 416.875ZM228.422 418V408.182H229.93V418H228.422ZM229.189 406.545C228.895 406.545 228.641 406.445 228.428 406.245C228.219 406.045 228.115 405.804 228.115 405.523C228.115 405.241 228.219 405.001 228.428 404.8C228.641 404.6 228.895 404.5 229.189 404.5C229.483 404.5 229.734 404.6 229.943 404.8C230.156 405.001 230.263 405.241 230.263 405.523C230.263 405.804 230.156 406.045 229.943 406.245C229.734 406.445 229.483 406.545 229.189 406.545ZM234.202 412.094V418H232.693V408.182H234.151V409.716H234.278C234.509 409.217 234.858 408.817 235.327 408.514C235.795 408.207 236.401 408.054 237.142 408.054C237.807 408.054 238.388 408.19 238.887 408.463C239.386 408.732 239.773 409.141 240.05 409.69C240.327 410.236 240.466 410.926 240.466 411.761V418H238.957V411.864C238.957 411.092 238.757 410.491 238.357 410.061C237.956 409.626 237.406 409.409 236.707 409.409C236.226 409.409 235.795 409.513 235.416 409.722C235.041 409.931 234.745 410.236 234.528 410.636C234.31 411.037 234.202 411.523 234.202 412.094Z" fill="#A4ACB9"/>
<path d="M70.6464 366.646C70.4512 366.842 70.4512 367.158 70.6464 367.354L73.8284 370.536C74.0237 370.731 74.3403 370.731 74.5355 370.536C74.7308 370.34 74.7308 370.024 74.5355 369.828L71.7071 367L74.5355 364.172C74.7308 363.976 74.7308 363.66 74.5355 363.464C74.3403 363.269 74.0237 363.269 73.8284 363.464L70.6464 366.646ZM502.5 268.5H510.5V267.5H502.5V268.5ZM522 280V355H523V280H522ZM510.5 366.5H71V367.5H510.5V366.5ZM522 355C522 361.351 516.851 366.5 510.5 366.5V367.5C517.404 367.5 523 361.904 523 355H522ZM510.5 268.5C516.851 268.5 522 273.649 522 280H523C523 273.096 517.404 267.5 510.5 267.5V268.5Z" fill="#3C3C40"/>
<path d="M36.0568 53V44.2727H39.0057C39.6875 44.2727 40.2472 44.3892 40.6847 44.6222C41.1222 44.8523 41.446 45.169 41.6562 45.5724C41.8665 45.9759 41.9716 46.4347 41.9716 46.9489C41.9716 47.4631 41.8665 47.919 41.6562 48.3168C41.446 48.7145 41.1236 49.027 40.6889 49.2543C40.2543 49.4787 39.6989 49.5909 39.0227 49.5909H36.6364V48.6364H38.9886C39.4545 48.6364 39.8295 48.5682 40.1136 48.4318C40.4006 48.2955 40.608 48.1023 40.7358 47.8523C40.8665 47.5994 40.9318 47.2983 40.9318 46.9489C40.9318 46.5994 40.8665 46.294 40.7358 46.0327C40.6051 45.7713 40.3963 45.5696 40.1094 45.4276C39.8224 45.2827 39.4432 45.2102 38.9716 45.2102H37.1136V53H36.0568ZM40.1648 49.0795L42.3125 53H41.0852L38.9716 49.0795H40.1648ZM46.2702 53.1364C45.6396 53.1364 45.0955 52.9972 44.6381 52.7188C44.1836 52.4375 43.8327 52.0455 43.5856 51.5426C43.3413 51.0369 43.2191 50.4489 43.2191 49.7784C43.2191 49.108 43.3413 48.517 43.5856 48.0057C43.8327 47.4915 44.1765 47.0909 44.6168 46.804C45.06 46.5142 45.5771 46.3693 46.168 46.3693C46.5089 46.3693 46.8455 46.4261 47.1779 46.5398C47.5103 46.6534 47.8129 46.8381 48.0856 47.0938C48.3583 47.3466 48.5756 47.6818 48.7376 48.0994C48.8995 48.517 48.9805 49.0312 48.9805 49.642V50.0682H43.935V49.1989H47.9577C47.9577 48.8295 47.8839 48.5 47.7362 48.2102C47.5913 47.9205 47.3839 47.6918 47.114 47.5241C46.8469 47.3565 46.5316 47.2727 46.168 47.2727C45.7674 47.2727 45.4208 47.3722 45.1282 47.571C44.8384 47.767 44.6154 48.0227 44.4592 48.3381C44.3029 48.6534 44.2248 48.9915 44.2248 49.3523V49.9318C44.2248 50.4261 44.31 50.8452 44.4805 51.1889C44.6538 51.5298 44.8938 51.7898 45.2006 51.9688C45.5075 52.1449 45.864 52.233 46.2702 52.233C46.5344 52.233 46.7731 52.196 46.9862 52.1222C47.2021 52.0455 47.3881 51.9318 47.5444 51.7812C47.7006 51.6278 47.8214 51.4375 47.9066 51.2102L48.8782 51.483C48.7759 51.8125 48.604 52.1023 48.3626 52.3523C48.1211 52.5994 47.8228 52.7926 47.4677 52.9318C47.1126 53.0682 46.7134 53.1364 46.2702 53.1364ZM52.4364 53.1534C52.0217 53.1534 51.6452 53.0753 51.3072 52.919C50.9691 52.7599 50.7006 52.5312 50.5018 52.233C50.3029 51.9318 50.2035 51.5682 50.2035 51.142C50.2035 50.767 50.2773 50.4631 50.4251 50.2301C50.5728 49.9943 50.7702 49.8097 51.0174 49.6761C51.2646 49.5426 51.5373 49.4432 51.8356 49.3778C52.1367 49.3097 52.4393 49.2557 52.7433 49.2159C53.141 49.1648 53.4634 49.1264 53.7106 49.1009C53.9606 49.0724 54.1424 49.0256 54.256 48.9602C54.3725 48.8949 54.4308 48.7812 54.4308 48.6193V48.5852C54.4308 48.1648 54.3157 47.8381 54.0856 47.6051C53.8583 47.3722 53.5131 47.2557 53.0501 47.2557C52.57 47.2557 52.1935 47.3608 51.9208 47.571C51.6481 47.7812 51.4563 48.0057 51.3455 48.2443L50.391 47.9034C50.5614 47.5057 50.7887 47.196 51.0728 46.9744C51.3597 46.75 51.6722 46.5937 52.0103 46.5057C52.3512 46.4148 52.6864 46.3693 53.016 46.3693C53.2262 46.3693 53.4677 46.3949 53.7404 46.446C54.016 46.4943 54.2816 46.5952 54.5373 46.7486C54.7958 46.902 55.0103 47.1335 55.1808 47.4432C55.3512 47.7528 55.4364 48.1676 55.4364 48.6875V53H54.4308V52.1136H54.3796C54.3114 52.2557 54.1978 52.4077 54.0387 52.5696C53.8796 52.7315 53.668 52.8693 53.4038 52.983C53.1396 53.0966 52.8171 53.1534 52.4364 53.1534ZM52.5898 52.25C52.9876 52.25 53.3228 52.1719 53.5955 52.0156C53.8711 51.8594 54.0785 51.6577 54.2177 51.4105C54.3597 51.1634 54.4308 50.9034 54.4308 50.6307V49.7102C54.3881 49.7614 54.2944 49.8082 54.1495 49.8509C54.0075 49.8906 53.8427 49.9261 53.6552 49.9574C53.4705 49.9858 53.2901 50.0114 53.114 50.0341C52.9407 50.054 52.8001 50.071 52.6921 50.0852C52.4308 50.1193 52.1864 50.1747 51.9592 50.2514C51.7347 50.3253 51.5529 50.4375 51.4137 50.5881C51.2773 50.7358 51.2092 50.9375 51.2092 51.1932C51.2092 51.5426 51.3384 51.8068 51.5969 51.9858C51.8583 52.1619 52.1893 52.25 52.5898 52.25ZM58.2777 44.2727V53H57.272V44.2727H58.2777ZM65.2163 53L62.8299 44.2727H63.9038L65.7276 51.3807H65.8129L67.6708 44.2727H68.864L70.7219 51.3807H70.8072L72.631 44.2727H73.7049L71.3185 53H70.2276L68.3015 46.0455H68.2333L66.3072 53H65.2163ZM76.935 53.1364C76.3441 53.1364 75.8256 52.9957 75.3796 52.7145C74.9364 52.4332 74.5898 52.0398 74.3398 51.5341C74.0927 51.0284 73.9691 50.4375 73.9691 49.7614C73.9691 49.0795 74.0927 48.4844 74.3398 47.9759C74.5898 47.4673 74.9364 47.0724 75.3796 46.7912C75.8256 46.5099 76.3441 46.3693 76.935 46.3693C77.5259 46.3693 78.043 46.5099 78.4862 46.7912C78.9322 47.0724 79.2788 47.4673 79.5259 47.9759C79.7759 48.4844 79.9009 49.0795 79.9009 49.7614C79.9009 50.4375 79.7759 51.0284 79.5259 51.5341C79.2788 52.0398 78.9322 52.4332 78.4862 52.7145C78.043 52.9957 77.5259 53.1364 76.935 53.1364ZM76.935 52.233C77.3839 52.233 77.7532 52.1179 78.043 51.8878C78.3327 51.6577 78.5472 51.3551 78.6864 50.9801C78.8256 50.6051 78.8952 50.1989 78.8952 49.7614C78.8952 49.3239 78.8256 48.9162 78.6864 48.5384C78.5472 48.1605 78.3327 47.8551 78.043 47.6222C77.7532 47.3892 77.3839 47.2727 76.935 47.2727C76.4862 47.2727 76.1168 47.3892 75.8271 47.6222C75.5373 47.8551 75.3228 48.1605 75.1836 48.5384C75.0444 48.9162 74.9748 49.3239 74.9748 49.7614C74.9748 50.1989 75.0444 50.6051 75.1836 50.9801C75.3228 51.3551 75.5373 51.6577 75.8271 51.8878C76.1168 52.1179 76.4862 52.233 76.935 52.233ZM81.4361 53V46.4545H82.4077V47.4432H82.4759C82.5952 47.1193 82.8111 46.8565 83.1236 46.6548C83.4361 46.4531 83.7884 46.3523 84.1804 46.3523C84.2543 46.3523 84.3466 46.3537 84.4574 46.3565C84.5682 46.3594 84.652 46.3636 84.7088 46.3693V47.392C84.6747 47.3835 84.5966 47.3707 84.4744 47.3537C84.3551 47.3338 84.2287 47.3239 84.0952 47.3239C83.777 47.3239 83.4929 47.3906 83.2429 47.5241C82.9957 47.6548 82.7997 47.8366 82.6548 48.0696C82.5128 48.2997 82.4418 48.5625 82.4418 48.858V53H81.4361ZM86.9066 44.2727V53H85.9009V44.2727H86.9066ZM91.2202 53.1364C90.6747 53.1364 90.1932 52.9986 89.7756 52.723C89.358 52.4446 89.0313 52.0526 88.7955 51.5469C88.5597 51.0384 88.4418 50.4375 88.4418 49.7443C88.4418 49.0568 88.5597 48.4602 88.7955 47.9545C89.0313 47.4489 89.3594 47.0582 89.7798 46.7827C90.2003 46.5071 90.6861 46.3693 91.2372 46.3693C91.6634 46.3693 92 46.4403 92.2472 46.5824C92.4972 46.7216 92.6875 46.8807 92.8182 47.0597C92.9517 47.2358 93.0554 47.3807 93.1293 47.4943H93.2145V44.2727H94.2202V53H93.2486V51.9943H93.1293C93.0554 52.1136 92.9503 52.2642 92.8139 52.446C92.6776 52.625 92.483 52.7855 92.2301 52.9276C91.9773 53.0668 91.6406 53.1364 91.2202 53.1364ZM91.3565 52.233C91.7599 52.233 92.1009 52.1278 92.3793 51.9176C92.6577 51.7045 92.8693 51.4105 93.0142 51.0355C93.1591 50.6577 93.2315 50.2216 93.2315 49.7273C93.2315 49.2386 93.1605 48.8111 93.0185 48.4446C92.8764 48.0753 92.6662 47.7884 92.3878 47.5838C92.1094 47.3764 91.7656 47.2727 91.3565 47.2727C90.9304 47.2727 90.5753 47.3821 90.2912 47.6009C90.0099 47.8168 89.7983 48.1108 89.6562 48.483C89.517 48.8523 89.4474 49.267 89.4474 49.7273C89.4474 50.1932 89.5185 50.6165 89.6605 50.9972C89.8054 51.375 90.0185 51.6761 90.2997 51.9006C90.5838 52.1222 90.9361 52.233 91.3565 52.233ZM102.406 53H99.7131V44.2727H102.526C103.372 44.2727 104.097 44.4474 104.699 44.7969C105.301 45.1435 105.763 45.642 106.084 46.2926C106.405 46.9403 106.565 47.7159 106.565 48.6193C106.565 49.5284 106.403 50.3111 106.08 50.9673C105.756 51.6207 105.284 52.1236 104.665 52.4759C104.045 52.8253 103.293 53 102.406 53ZM100.77 52.0625H102.338C103.06 52.0625 103.658 51.9233 104.132 51.6449C104.607 51.3665 104.96 50.9702 105.193 50.456C105.426 49.9418 105.543 49.3295 105.543 48.6193C105.543 47.9148 105.428 47.3082 105.197 46.7997C104.967 46.2884 104.624 45.8963 104.166 45.6236C103.709 45.348 103.139 45.2102 102.457 45.2102H100.77V52.0625ZM110.128 53.1534C109.713 53.1534 109.337 53.0753 108.999 52.919C108.661 52.7599 108.392 52.5312 108.193 52.233C107.994 51.9318 107.895 51.5682 107.895 51.142C107.895 50.767 107.969 50.4631 108.116 50.2301C108.264 49.9943 108.462 49.8097 108.709 49.6761C108.956 49.5426 109.229 49.4432 109.527 49.3778C109.828 49.3097 110.131 49.2557 110.435 49.2159C110.832 49.1648 111.155 49.1264 111.402 49.1009C111.652 49.0724 111.834 49.0256 111.947 48.9602C112.064 48.8949 112.122 48.7812 112.122 48.6193V48.5852C112.122 48.1648 112.007 47.8381 111.777 47.6051C111.55 47.3722 111.205 47.2557 110.741 47.2557C110.261 47.2557 109.885 47.3608 109.612 47.571C109.339 47.7812 109.148 48.0057 109.037 48.2443L108.082 47.9034C108.253 47.5057 108.48 47.196 108.764 46.9744C109.051 46.75 109.364 46.5937 109.702 46.5057C110.043 46.4148 110.378 46.3693 110.707 46.3693C110.918 46.3693 111.159 46.3949 111.432 46.446C111.707 46.4943 111.973 46.5952 112.229 46.7486C112.487 46.902 112.702 47.1335 112.872 47.4432C113.043 47.7528 113.128 48.1676 113.128 48.6875V53H112.122V52.1136H112.071C112.003 52.2557 111.889 52.4077 111.73 52.5696C111.571 52.7315 111.359 52.8693 111.095 52.983C110.831 53.0966 110.509 53.1534 110.128 53.1534ZM110.281 52.25C110.679 52.25 111.014 52.1719 111.287 52.0156C111.563 51.8594 111.77 51.6577 111.909 51.4105C112.051 51.1634 112.122 50.9034 112.122 50.6307V49.7102C112.08 49.7614 111.986 49.8082 111.841 49.8509C111.699 49.8906 111.534 49.9261 111.347 49.9574C111.162 49.9858 110.982 50.0114 110.805 50.0341C110.632 50.054 110.491 50.071 110.384 50.0852C110.122 50.1193 109.878 50.1747 109.651 50.2514C109.426 50.3253 109.244 50.4375 109.105 50.5881C108.969 50.7358 108.901 50.9375 108.901 51.1932C108.901 51.5426 109.03 51.8068 109.288 51.9858C109.55 52.1619 109.881 52.25 110.281 52.25ZM117.81 46.4545V47.3068H114.418V46.4545H117.81ZM115.407 44.8864H116.412V51.125C116.412 51.4091 116.453 51.6222 116.536 51.7642C116.621 51.9034 116.729 51.9972 116.86 52.0455C116.993 52.0909 117.134 52.1136 117.282 52.1136C117.392 52.1136 117.483 52.108 117.554 52.0966C117.625 52.0824 117.682 52.071 117.725 52.0625L117.929 52.9659C117.861 52.9915 117.766 53.017 117.644 53.0426C117.522 53.071 117.367 53.0852 117.179 53.0852C116.895 53.0852 116.617 53.0241 116.344 52.902C116.074 52.7798 115.85 52.5938 115.671 52.3438C115.495 52.0938 115.407 51.7784 115.407 51.3977V44.8864ZM121.249 53.1534C120.834 53.1534 120.458 53.0753 120.12 52.919C119.782 52.7599 119.513 52.5312 119.314 52.233C119.115 51.9318 119.016 51.5682 119.016 51.142C119.016 50.767 119.09 50.4631 119.238 50.2301C119.385 49.9943 119.583 49.8097 119.83 49.6761C120.077 49.5426 120.35 49.4432 120.648 49.3778C120.949 49.3097 121.252 49.2557 121.556 49.2159C121.953 49.1648 122.276 49.1264 122.523 49.1009C122.773 49.0724 122.955 49.0256 123.069 48.9602C123.185 48.8949 123.243 48.7812 123.243 48.6193V48.5852C123.243 48.1648 123.128 47.8381 122.898 47.6051C122.671 47.3722 122.326 47.2557 121.863 47.2557C121.382 47.2557 121.006 47.3608 120.733 47.571C120.461 47.7812 120.269 48.0057 120.158 48.2443L119.203 47.9034C119.374 47.5057 119.601 47.196 119.885 46.9744C120.172 46.75 120.485 46.5937 120.823 46.5057C121.164 46.4148 121.499 46.3693 121.828 46.3693C122.039 46.3693 122.28 46.3949 122.553 46.446C122.828 46.4943 123.094 46.5952 123.35 46.7486C123.608 46.902 123.823 47.1335 123.993 47.4432C124.164 47.7528 124.249 48.1676 124.249 48.6875V53H123.243V52.1136H123.192C123.124 52.2557 123.01 52.4077 122.851 52.5696C122.692 52.7315 122.48 52.8693 122.216 52.983C121.952 53.0966 121.63 53.1534 121.249 53.1534ZM121.402 52.25C121.8 52.25 122.135 52.1719 122.408 52.0156C122.684 51.8594 122.891 51.6577 123.03 51.4105C123.172 51.1634 123.243 50.9034 123.243 50.6307V49.7102C123.201 49.7614 123.107 49.8082 122.962 49.8509C122.82 49.8906 122.655 49.9261 122.468 49.9574C122.283 49.9858 122.103 50.0114 121.926 50.0341C121.753 50.054 121.613 50.071 121.505 50.0852C121.243 50.1193 120.999 50.1747 120.772 50.2514C120.547 50.3253 120.365 50.4375 120.226 50.5881C120.09 50.7358 120.022 50.9375 120.022 51.1932C120.022 51.5426 120.151 51.8068 120.409 51.9858C120.671 52.1619 121.002 52.25 121.402 52.25Z" fill="#A4ACB9"/>
<rect x="0.5" y="0.5" width="621" height="548" rx="11.5" stroke="#29292B"/>
<defs>
<linearGradient id="paint0_linear_4159_7639" x1="11.0414" y1="23.1264" x2="641.831" y2="494.095" gradientUnits="userSpaceOnUse">
<stop stop-color="#2A2A30"/>
<stop offset="1" stop-color="#18181A" stop-opacity="0"/>
</linearGradient>
<linearGradient id="paint1_linear_4159_7639" x1="309.021" y1="21" x2="305.754" y2="161.924" gradientUnits="userSpaceOnUse">
<stop stop-color="#18181A"/>
<stop offset="1" stop-color="#161617" stop-opacity="0"/>
</linearGradient>
<linearGradient id="paint2_linear_4159_7639" x1="310.706" y1="35" x2="301.69" y2="269.654" gradientUnits="userSpaceOnUse">
<stop stop-color="#232327"/>
<stop offset="1" stop-color="#171719" stop-opacity="0"/>
</linearGradient>
</defs>
</svg>
