<svg width="98" height="30" viewBox="0 0 98 30" fill="none" xmlns="http://www.w3.org/2000/svg">
<path d="M17.4621 12.6584C17.3529 12.6979 17.2383 12.6792 17.1257 12.6799C15.7509 12.6813 14.3754 12.6806 13.0005 12.6806C12.9548 12.6806 12.9091 12.6758 12.8641 12.6813C12.6921 12.7021 12.6082 12.6425 12.6246 12.4512C12.6382 12.291 12.6273 12.1281 12.6273 11.9666C12.6273 11.1473 12.6273 10.3272 12.6259 9.50791C12.6253 9.13567 12.6621 9.1828 12.293 9.1828C10.5429 9.18003 8.79279 9.17795 7.04269 9.18003C6.44022 9.18003 6.01242 8.94227 5.74633 8.36346C5.24142 7.26685 4.70104 6.18687 4.17567 5.09926C4.14087 5.02648 4.10403 4.95508 4.07264 4.88091C3.92868 4.54056 4.05218 4.31319 4.41107 4.26814C4.51205 4.25566 4.61507 4.26121 4.71742 4.26121C11.582 4.26121 18.446 4.26121 25.3106 4.26121C25.4464 4.26121 25.5842 4.24596 25.7172 4.28685C25.982 4.36865 26.0734 4.55927 25.9758 4.82199C25.956 4.87537 25.9274 4.92597 25.9021 4.97796C25.3467 6.12725 24.7838 7.27309 24.24 8.42793C23.9937 8.95197 23.585 9.17449 23.0412 9.17587C21.371 9.18142 19.7 9.18003 18.0291 9.18142C17.9608 9.18142 17.8926 9.18072 17.8244 9.18142C17.4594 9.18558 17.4969 9.13705 17.4962 9.51207C17.4942 10.4818 17.4955 11.4509 17.4935 12.4207C17.4935 12.5004 17.5105 12.5829 17.4614 12.6577L17.4621 12.6584Z" fill="white"/>
<path d="M37.4562 8.35583C39.9459 8.35583 42.4356 8.35583 44.9253 8.35653C45.0502 8.35653 45.1778 8.35029 45.2985 8.37732C45.5216 8.42654 45.5899 8.57211 45.5107 8.79046C45.4875 8.85493 45.4534 8.91593 45.4234 8.97831C45.0331 9.78587 44.634 10.59 44.256 11.4031C44.0731 11.7961 43.7784 11.9736 43.3663 11.977C42.673 11.9819 41.9791 11.9833 41.2859 11.9853C40.7292 11.9867 40.1717 11.986 39.615 11.9853C39.2124 11.9846 39.2766 11.986 39.2752 12.3479C39.2731 12.9946 39.2752 13.6414 39.2752 14.2874C39.2745 16.5389 39.2711 18.7903 39.2752 21.0418C39.2752 21.3267 39.2152 21.5825 39.0882 21.8376C38.683 22.6507 38.2954 23.4728 37.8956 24.2886C37.8178 24.4481 37.7646 24.6505 37.5285 24.6449C37.2958 24.6394 37.2467 24.4363 37.1689 24.2769C36.7384 23.3993 36.3181 22.5162 35.8828 21.6407C35.7559 21.3856 35.6979 21.1298 35.6986 20.8449C35.702 18.0507 35.6999 15.2572 35.6958 12.4629C35.6952 11.9105 35.7743 11.9895 35.2292 11.9867C34.0242 11.9812 32.8193 11.9763 31.6143 11.9826C31.1292 11.9846 30.8079 11.7878 30.6011 11.3261C30.2477 10.5394 29.8554 9.77062 29.4794 8.99426C29.4644 8.96306 29.4508 8.93118 29.4364 8.89998C29.2747 8.54577 29.3709 8.3794 29.7517 8.35861C29.8424 8.35376 29.9338 8.35722 30.0246 8.35722C32.5027 8.35722 34.9808 8.35722 37.4596 8.35722L37.4562 8.35583Z" fill="white"/>
<path d="M73.5102 17.0865C73.5102 17.4546 73.5102 17.8219 73.5102 18.19C73.5102 19.3671 73.5109 20.5441 73.5096 21.7211C73.5096 21.9894 73.5055 21.9935 73.2544 21.9942C72.5045 21.9963 71.7547 21.9901 71.0048 21.9984C70.8295 22.0005 70.7667 21.9499 70.7694 21.7662C70.779 21.1776 70.7729 20.5891 70.7729 20.0006C70.7729 17.6119 70.7729 15.2232 70.7729 12.8345C70.7729 12.3943 70.7381 12.4546 71.1604 12.4526C71.6946 12.4498 72.2289 12.4657 72.7624 12.4456C73.0067 12.4366 73.1514 12.517 73.2912 12.7187C74.3242 14.2091 75.3695 15.6904 76.4107 17.1752C76.4625 17.2494 76.5178 17.3215 76.5744 17.3991C76.6857 17.3277 76.6413 17.2286 76.6413 17.1496C76.6447 15.7299 76.6434 14.311 76.6434 12.8913C76.6434 12.822 76.6502 12.752 76.642 12.6841C76.6215 12.5039 76.6925 12.4463 76.8726 12.4484C77.5658 12.4581 78.2584 12.4519 78.9516 12.4526C79.0423 12.4526 79.1337 12.4567 79.2245 12.4526C79.3446 12.4463 79.3855 12.5073 79.3801 12.6203C79.3767 12.6896 79.3801 12.7589 79.3801 12.8283C79.3801 15.759 79.3801 18.6898 79.3801 21.6213C79.3801 22.0393 79.421 21.9942 79.0205 21.9956C78.4637 21.9977 77.907 21.9845 77.3502 22.0018C77.1196 22.0088 76.9818 21.9318 76.8494 21.7412C75.8294 20.2696 74.7991 18.8063 73.7709 17.3402C73.7061 17.248 73.6378 17.1586 73.5716 17.0685C73.5512 17.0747 73.5307 17.0816 73.5102 17.0879V17.0865Z" fill="white"/>
<path d="M55.2853 15.7285C55.4286 15.6793 55.4682 15.5913 55.5248 15.524C56.3258 14.5792 57.131 13.6379 57.9211 12.6841C58.0691 12.5052 58.2206 12.4449 58.4423 12.4477C59.2495 12.4588 60.0567 12.4519 60.8638 12.4519C60.9621 12.4519 61.0596 12.4519 61.1777 12.4519C61.1511 12.612 61.0514 12.6792 60.9819 12.761C60.0355 13.8833 59.0871 15.0035 58.1387 16.1243C57.8863 16.4231 57.9238 16.3475 58.1101 16.6442C59.1601 18.3183 60.2149 19.9895 61.2664 21.6629C61.325 21.7564 61.4049 21.8417 61.4253 21.9644C61.3141 22.0136 61.2125 21.9928 61.1149 21.9928C60.376 21.9949 59.637 21.9831 58.8981 21.9998C58.6538 22.0053 58.5119 21.9339 58.3837 21.7155C57.7437 20.6252 57.0859 19.5459 56.4323 18.4638C56.3743 18.3675 56.3333 18.2559 56.2187 18.1741C55.9281 18.5033 55.6435 18.8305 55.3536 19.1529C55.2642 19.252 55.2867 19.3684 55.286 19.4807C55.284 20.2079 55.286 20.9357 55.2847 21.6629C55.2847 21.99 55.2826 21.9921 54.9797 21.9928C54.2633 21.9942 53.5475 21.9942 52.8311 21.9928C52.5439 21.9928 52.5391 21.99 52.5384 21.7211C52.537 18.7189 52.537 15.7174 52.5384 12.7153C52.5384 12.4595 52.5439 12.4539 52.7711 12.4525C53.5325 12.4498 54.2946 12.4567 55.0561 12.4477C55.2376 12.4456 55.2887 12.5087 55.2874 12.6861C55.2806 13.5637 55.2847 14.4413 55.2847 15.3189C55.2847 15.445 55.2847 15.5712 55.2847 15.7271L55.2853 15.7285Z" fill="white"/>
<path d="M62.6385 17.2203C62.6385 15.766 62.6385 14.3124 62.6385 12.8581C62.6385 12.777 62.6405 12.6966 62.6385 12.6155C62.6351 12.5004 62.6849 12.4449 62.8009 12.4519C62.8691 12.456 62.9373 12.4519 63.0056 12.4519C65.1302 12.4519 67.2549 12.4519 69.3796 12.4519C69.7828 12.4519 69.7521 12.4082 69.7521 12.8158C69.7528 13.3121 69.7535 13.8084 69.7521 14.3047C69.7508 14.5862 69.7487 14.5896 69.4737 14.5903C68.2463 14.5917 67.0195 14.5889 65.7921 14.5924C65.3247 14.5938 65.3868 14.5217 65.382 15.0187C65.3793 15.2842 65.3806 15.5497 65.382 15.8152C65.3834 16.1722 65.3479 16.1389 65.7191 16.1396C66.7418 16.141 67.7646 16.1396 68.7867 16.1396C68.8549 16.1396 68.9238 16.1465 68.9914 16.1382C69.1783 16.116 69.2186 16.2082 69.2158 16.3815C69.207 16.9354 69.2145 17.4892 69.2117 18.0431C69.2104 18.3023 69.207 18.3065 68.9457 18.3072C67.912 18.3093 66.8776 18.3079 65.8439 18.3079C65.7757 18.3079 65.7075 18.3072 65.6392 18.3079C65.3861 18.3127 65.3841 18.3127 65.3827 18.5754C65.3806 18.9331 65.3909 19.2915 65.3786 19.6485C65.3725 19.8225 65.4373 19.8599 65.5949 19.8585C66.3788 19.8516 67.1628 19.8557 67.9468 19.8557C68.4578 19.8557 68.9695 19.8544 69.4806 19.8557C69.7467 19.8571 69.7508 19.8599 69.7521 20.1122C69.7549 20.6661 69.748 21.2199 69.7555 21.7738C69.7576 21.9367 69.7078 21.9977 69.542 21.9949C69.0535 21.9866 68.5649 21.9921 68.0764 21.9921C66.4061 21.9921 64.7359 21.9921 63.0656 21.9921C62.9858 21.9921 62.9059 21.9852 62.8268 21.9935C62.6705 22.0088 62.6269 21.9284 62.6371 21.7876C62.6419 21.719 62.6371 21.649 62.6371 21.5797C62.6371 20.1254 62.6371 18.6718 62.6371 17.2175L62.6385 17.2203Z" fill="white"/>
<path d="M84.5532 14.4815C84.5532 14.5328 84.5287 14.5682 84.4748 14.5682C84.3342 14.5682 84.2278 14.5682 84.0893 14.5682C83.1347 14.5654 82.1802 14.5682 81.2257 14.5661C81.0803 14.5661 80.963 14.4462 80.963 14.2985C80.963 12.4172 80.9644 10.5359 80.9657 8.65392C80.9657 8.3607 80.9684 8.35654 81.2666 8.35654C83.8239 8.35585 86.3804 8.35654 88.9377 8.35654C89.3812 8.35654 89.824 8.35585 90.2675 8.35654C90.3582 8.35654 90.4517 8.3503 90.5391 8.36833C90.7669 8.41546 90.8959 8.57282 90.771 8.82375C90.5193 9.32769 90.2784 9.83718 90.0335 10.3446C89.8636 10.6967 89.6869 11.0454 89.5279 11.4031C89.3525 11.7975 89.0516 11.9736 88.6382 11.9777C88.2745 11.9812 87.9108 11.9847 87.5472 11.9847C86.6493 11.9854 85.7514 11.984 84.8535 11.9847C84.5546 11.9847 84.5526 11.9874 84.5519 12.2807C84.5505 13.0542 84.5519 13.5963 84.5526 14.3692V14.4801L84.5532 14.4815Z" fill="white"/>
<path d="M15.074 17.6105C15.7898 17.6105 16.5055 17.6091 17.2212 17.6105C17.4873 17.6105 17.4921 17.614 17.4921 17.8642C17.4935 19.1445 17.4921 20.4255 17.4907 21.7058C17.4907 21.9408 17.4327 22.1592 17.3297 22.3706C16.7457 23.5691 16.1664 24.7697 15.5824 25.9682C15.4875 26.163 15.4022 26.3793 15.1334 26.3834C14.8632 26.3876 14.7738 26.1748 14.6783 25.9786C14.0376 24.6671 13.399 23.3549 12.761 22.042C12.6689 21.8528 12.6321 21.6497 12.6321 21.439C12.6314 20.2391 12.6335 19.0392 12.6232 17.8393C12.6219 17.6479 12.686 17.605 12.8593 17.6064C13.5975 17.614 14.3358 17.6098 15.074 17.6098V17.6105Z" fill="white"/>
<path d="M17.4989 15.1172C17.4989 14.39 17.4976 13.6629 17.4996 12.9364C17.5003 12.6924 17.5044 12.6869 17.7384 12.6869C19.0225 12.6841 20.3066 12.6848 21.59 12.6841C21.6466 12.6841 21.7033 12.6882 21.7599 12.691C22.0778 12.707 22.3173 12.9392 22.116 13.3398C21.6268 14.3158 21.1615 15.305 20.6866 16.2886C20.5863 16.4959 20.4813 16.7004 20.3871 16.9097C20.1981 17.3305 19.8604 17.5544 19.4271 17.5793C18.8383 17.6133 18.246 17.5911 17.6559 17.6008C17.4703 17.6036 17.4996 17.4795 17.4996 17.3679C17.4989 16.6179 17.4996 15.8679 17.4996 15.1178L17.4989 15.1172Z" fill="white"/>
<path d="M93.2246 19.1126C93.2246 19.9888 93.226 20.8643 93.2239 21.7405C93.2239 21.988 93.2185 21.9928 92.9844 21.9942C92.2353 21.997 91.4868 21.997 90.7376 21.9942C90.4899 21.9935 90.4865 21.9894 90.4858 21.719C90.4838 20.8893 90.4852 20.0595 90.4852 19.2298C90.4852 18.2961 90.4838 17.3631 90.4858 16.4293C90.4858 16.186 90.4906 16.1812 90.724 16.1805C91.4731 16.1784 92.2216 16.1784 92.9708 16.1805C93.2205 16.1805 93.2232 16.1853 93.2239 16.4508C93.2253 17.3381 93.2239 18.2254 93.2239 19.1133L93.2246 19.1126Z" fill="white"/>
<path d="M51.0906 15.0589C50.7262 13.859 49.9675 13.0411 48.7953 12.6473C47.4198 12.185 46.0224 12.1808 44.6306 12.56C43.2816 12.9281 42.3947 13.8029 42.0365 15.1844C41.6885 16.5271 41.6796 17.8823 42.0255 19.225C42.3687 20.5573 43.2107 21.4452 44.5091 21.8403C45.8805 22.2583 47.2711 22.2611 48.6425 21.8424C49.9382 21.4473 50.7685 20.56 51.1363 19.2333C51.3164 18.5838 51.3751 17.919 51.3744 17.2466C51.3724 16.5049 51.3069 15.7722 51.0906 15.0589ZM48.4187 18.5283C48.2119 19.2319 47.7507 19.6263 47.0357 19.7303C46.7061 19.7781 46.38 19.7753 46.0531 19.7178C45.4452 19.6104 45.0167 19.2797 44.7977 18.6836C44.7179 18.4659 44.6633 18.2434 44.6374 18.0133C44.5596 17.3333 44.561 16.656 44.7233 15.9864C44.9035 15.244 45.3633 14.8191 46.1118 14.7096C46.453 14.6597 46.79 14.6624 47.1285 14.722C47.7978 14.8413 48.229 15.2288 48.4173 15.8942C48.5401 16.3309 48.579 16.7766 48.5722 17.2286C48.5804 17.6688 48.5442 18.1034 48.4194 18.5276L48.4187 18.5283Z" fill="white"/>
<path d="M93.4498 13.6018C93.3849 13.1471 93.1673 12.7818 92.8855 12.4422C92.3683 11.8197 91.5618 11.663 90.8529 12.047C90.1911 12.4054 89.7899 13.1312 89.8902 13.8486C89.97 14.4156 90.4695 15.3521 91.2705 15.5462C91.4247 15.5837 91.5769 15.6356 91.7208 15.6169C92.775 15.6149 93.5971 14.6361 93.4491 13.6018H93.4498ZM92.8077 14.9799C92.2673 15.524 91.4561 15.5802 90.8557 15.0825C91.4356 15.201 91.9671 15.0901 92.4284 14.7144C92.8787 14.347 93.1066 13.859 93.1127 13.2601C93.4395 13.6954 93.2942 14.4905 92.8084 14.9799H92.8077Z" fill="white"/>
<path d="M82.7629 18.1977C83.2883 18.1977 83.8136 18.197 84.339 18.1977C84.5348 18.1977 84.5376 18.2004 84.5382 18.3841C84.5389 19.3241 84.5382 20.264 84.5376 21.2047C84.5376 21.3773 84.4946 21.5374 84.4195 21.6927C83.9904 22.5723 83.5653 23.4541 83.1368 24.3337C83.0672 24.4765 83.0044 24.6353 82.8073 24.6387C82.6087 24.6415 82.5432 24.4855 82.4729 24.3413C82.0028 23.3785 81.5334 22.415 81.0653 21.4515C80.9978 21.3128 80.9705 21.1631 80.9705 21.0085C80.9698 20.1275 80.9719 19.2471 80.9644 18.3661C80.963 18.2261 81.0108 18.1942 81.1377 18.1949C81.6794 18.2004 82.2218 18.197 82.7636 18.197L82.7629 18.1977Z" fill="white"/>
<path d="M84.543 16.367C84.543 15.8332 84.5416 15.2994 84.543 14.7657C84.543 14.5862 84.5464 14.5827 84.7184 14.582C85.6606 14.5799 86.6036 14.5799 87.5458 14.5799C87.5874 14.5799 87.6291 14.5827 87.6707 14.5848C87.904 14.5966 88.0801 14.7671 87.932 15.061C87.5724 15.7777 87.2313 16.5035 86.8826 17.2258C86.8089 17.3776 86.7318 17.528 86.6622 17.6819C86.5237 17.9904 86.2754 18.1554 85.9574 18.1734C85.5248 18.1983 85.0902 18.1817 84.657 18.1886C84.5212 18.1907 84.5423 18.0999 84.5423 18.0181C84.5423 17.4677 84.5423 16.9166 84.5423 16.3663L84.543 16.367Z" fill="white"/>
</svg>
